<svg id="promo-gift" xmlns="http://www.w3.org/2000/svg" xmlns:xlink="http://www.w3.org/1999/xlink" viewBox="0 -4 16 20" shape-rendering="geometricPrecision" text-rendering="geometricPrecision" project-id="d62718e34ef448bdbe55cb02b611184a" export-id="3e618c9ce65f40d8ad217371d9043c69" cached="false">
<style><![CDATA[
#promo-gift-s-path1_to {animation: promo-gift-s-path1_to__to 1500ms linear infinite normal forwards}@keyframes promo-gift-s-path1_to__to { 0% {transform: translate(7.17657px,15.97417px);animation-timing-function: cubic-bezier(0.42,0,0.58,1)} 13.333333% {transform: translate(7.17657px,15.97417px);animation-timing-function: cubic-bezier(0,0,0.58,1)} 26.666667% {transform: translate(7.17657px,13.97417px);animation-timing-function: cubic-bezier(0.42,0,1,1)} 40% {transform: translate(7.17657px,15.97417px)} 100% {transform: translate(7.17657px,15.97417px)}} #promo-gift-s-path1_ts {animation: promo-gift-s-path1_ts__ts 1500ms linear infinite normal forwards}@keyframes promo-gift-s-path1_ts__ts { 0% {transform: scale(1,1);animation-timing-function: cubic-bezier(0.42,0,0.58,1)} 13.333333% {transform: scale(1.092835,0.865514);animation-timing-function: cubic-bezier(0.42,0,0.58,1)} 26.666667% {transform: scale(0.875025,1.104483);animation-timing-function: cubic-bezier(0.42,0,0.58,1)} 46.666667% {transform: scale(1.038972,0.946495);animation-timing-function: cubic-bezier(0.42,0,0.58,1)} 80% {transform: scale(0.95,1.041599);animation-timing-function: cubic-bezier(0.42,0,0.58,1)} 100% {transform: scale(1,1)}} #promo-gift-s-rect1_to {animation: promo-gift-s-rect1_to__to 1500ms linear infinite normal forwards}@keyframes promo-gift-s-rect1_to__to { 0% {transform: translate(7.335901px,13.000293px);animation-timing-function: cubic-bezier(0.42,0,0.58,1)} 13.333333% {transform: translate(6.335901px,13.000293px);animation-timing-function: cubic-bezier(0.346898,0,0.679606,0.348693)} 26.666667% {transform: translate(6.489233px,11.846961px);animation-timing-function: cubic-bezier(0.340084,0.268829,0.67323,0.603948)} 33.333333% {transform: translate(6.68639px,10.882666px);animation-timing-function: cubic-bezier(0.346804,0.255183,0.679244,0.5937)} 46.666667% {transform: translate(7.335901px,12.000293px);animation-timing-function: cubic-bezier(0.423333,0,0.59309,0.939174)} 80% {transform: translate(7.335901px,14.000293px)} 100% {transform: translate(7.335901px,13.000293px)}} #promo-gift-s-rect1_tr {animation: promo-gift-s-rect1_tr__tr 1500ms linear infinite normal forwards}@keyframes promo-gift-s-rect1_tr__tr { 0% {transform: rotate(18.957257deg);animation-timing-function: cubic-bezier(0.42,0,0.58,1)} 13.333333% {transform: rotate(18.072deg);animation-timing-function: cubic-bezier(0.361292,0,0.691801,0.367009)} 26.666667% {transform: rotate(23.202347deg);animation-timing-function: cubic-bezier(0.346424,0.273369,0.678754,0.611296)} 33.333333% {transform: rotate(25.342302deg);animation-timing-function: cubic-bezier(0.354993,0.270785,0.682913,0.61975)} 46.666667% {transform: rotate(0.484078deg);animation-timing-function: cubic-bezier(0.42,0,0.58,1)} 80% {transform: rotate(13.128998deg)} 100% {transform: rotate(18.957257deg)}} #promo-gift-s-path2_to {animation: promo-gift-s-path2_to__to 1500ms linear infinite normal forwards}@keyframes promo-gift-s-path2_to__to { 0% {transform: translate(12.766546px,7.145792px);animation-timing-function: cubic-bezier(0.42,0,0.58,1)} 13.333333% {transform: translate(12.766546px,7.8px);animation-timing-function: cubic-bezier(0.42,0,0.58,1)} 46.666667% {transform: translate(12.766546px,4.145792px);animation-timing-function: cubic-bezier(0.42,0,0.58,1)} 80% {transform: translate(12.766546px,8px)} 100% {transform: translate(12.766546px,7.145792px)}} #promo-gift-s-path2_tr {animation: promo-gift-s-path2_tr__tr 1500ms linear infinite normal forwards}@keyframes promo-gift-s-path2_tr__tr { 0% {transform: rotate(0deg);animation-timing-function: cubic-bezier(0.42,0,0.58,1)} 13.333333% {transform: rotate(0deg);animation-timing-function: cubic-bezier(0.42,0,0.58,1)} 46.666667% {transform: rotate(8.286638deg);animation-timing-function: cubic-bezier(0.42,0,0.58,1)} 80% {transform: rotate(-5.892158deg)} 100% {transform: rotate(0deg)}}
]]></style>
<g id="promo-gift-u-box"><g id="promo-gift-u-clip-group" mask="url(#promo-gift-u-clipping-paths)"><g id="promo-gift-s-path1_to" transform="translate(7.17657,15.97417)"><g id="promo-gift-s-path1_ts" transform="scale(1,1)"><path id="promo-gift-s-path1" d="M13.26127,8.01729q-.026314,2.266155,0,6.55278c0,.7742-.6299,1.4041-1.4042,1.4041h-9.36108c-.77425,0-1.40415-.6299-1.40415-1.4041v-6.55278c0-.2585.20956-.46806.46806-.46806.28519,0,10.92574,0,11.22174,0c0,0,.485065,0,.47963.46806Zm-7.4631.49389h-3.74444v6.08472c0,.2581.20997.468.46806.468h3.27638v-6.55272Zm1.87222,0h-.9361v6.55272h.9361v-6.55272ZM12.3509,14.5959v-6.08472v0h-3.74439v6.55272h3.27639c.258,0,.468-.2099.468-.468Z" transform="translate(-7.17657,-15.97417)" fill="#101918"/></g></g><mask id="promo-gift-u-clipping-paths"><g id="promo-gift-s-rect1_to" transform="translate(7.335901,13.000293)"><g id="promo-gift-s-rect1_tr" transform="rotate(18.957257)"><rect id="promo-gift-s-rect1" width="17.854902" height="11.603037" rx="0" ry="0" transform="translate(-8.927451,-5.801518)" fill="#fff" stroke-width="0"/></g></g></mask></g><g id="promo-gift-s-path2_to" transform="translate(12.766546,7.145792)"><g id="promo-gift-s-path2_tr" transform="rotate(0)"><path id="promo-gift-s-path2" d="M1.33401,4.91259c-.24294-.08838-.36819-.357-.27978-.59991L1.69454,2.5534c.26485-.72759,1.07231-1.10409,1.79981-.83925l1.47869.53819c-.13578-.73706.17041-1.46297.746-1.88406c1.15116-.84219,2.7875-.16219,2.99931,1.25122l.21422,1.43563l1.08283-.95725c1.0689-.94491,2.7608-.41816,3.1019.96944.1736.70625-.0685,1.44947-.6356,1.91803l1.5684.57084c.7276.26481,1.1041,1.07216.8393,1.79975l-.6403,1.75928c-.0888.24391-.3582.36782-.5999.27975L1.33401,4.91259ZM9.4222,3.87178c.617.22459.9058.32968,1.522.55396.7244.26325,1.4482-.38606,1.2641-1.1349-.1727-.70235-1.0299-.97163-1.5729-.4916L9.4222,3.87178ZM6.51076,2.81206c.16991.06181,1.34909.49103,1.52184.5539l-.24-1.60765c-.10721-.71516-.93587-1.06241-1.52087-.63447-.62231.45519-.48547,1.42437.23903,1.68822Zm.62178,1.22247c-.15178-.05525-3.46619-1.2616-3.95837-1.44072-.2425-.08822-.51166.03722-.59994.27975L2.09398,4.19299L6.49223,5.79384l.64031-1.75931Zm1.75935.6404l-.87966-.32019-.64034,1.75929.87965.32018.64035-1.75928ZM13.7299,6.43578L9.77154,4.99506L9.1312,6.75434l4.3982,1.60084.4803-1.31947c.0882-.2425-.0372-.51165-.2798-.59993Z" transform="translate(-12.766546,-7.14579)" fill="#101918"/></g></g></g></svg>
